<svg width="600" height="400" viewBox="0 0 600 400" fill="none" xmlns="http://www.w3.org/2000/svg">
<rect width="600" height="400" fill="#F1F1F1"/>
<path d="M341.416 160H258.894C255.655 160 253 162.654 253 165.891V233.656C253 236.893 255.652 239.547 258.894 239.547H341.416C344.655 239.547 347.31 236.893 347.31 233.656V165.891C347.31 162.654 344.655 160 341.416 160ZM341.416 233.656H258.894V216.301L282.552 193.387L306.94 217.732C307.945 218.952 309.734 218.796 311.004 217.835L321.767 208.097L341.18 228.015C341.254 228.089 341.336 228.145 341.416 228.206V233.656ZM341.416 219.821L324.098 202.109C323.046 201.072 321.401 200.969 320.234 201.856L309.129 211.523L284.727 187.399C284.205 186.769 283.453 186.386 282.637 186.33C281.827 186.301 281.025 186.566 280.43 187.125L258.888 208.074V165.888H341.41V219.818L341.416 219.821ZM320.785 189.476C324.033 189.476 326.665 186.843 326.665 183.6C326.665 180.356 324.036 177.723 320.785 177.723C317.535 177.723 314.906 180.356 314.906 183.6C314.906 186.843 317.535 189.476 320.785 189.476Z" fill="black" fill-opacity="0.1"/>
</svg>
